<svg width="56" height="56" viewBox="0 0 56 56" fill="none" xmlns="http://www.w3.org/2000/svg">
<path d="M27.0501 8.58979C27.1377 8.41271 27.2731 8.26365 27.441 8.15944C27.6088 8.05522 27.8025 8 28.0001 8C28.1976 8 28.3913 8.05522 28.5592 8.15944C28.727 8.26365 28.8624 8.41271 28.9501 8.58979L33.5701 17.9478C33.8744 18.5637 34.3237 19.0966 34.8793 19.5007C35.4349 19.9048 36.0803 20.168 36.7601 20.2678L47.0921 21.7798C47.2878 21.8082 47.4718 21.8907 47.623 22.0182C47.7743 22.1456 47.8869 22.3129 47.9481 22.501C48.0093 22.6891 48.0166 22.8906 47.9692 23.0827C47.9219 23.2747 47.8217 23.4497 47.6801 23.5878L40.2081 30.8638C39.7153 31.344 39.3466 31.9368 39.1337 32.591C38.9209 33.2453 38.8702 33.9416 38.9861 34.6198L40.7501 44.8998C40.7846 45.0955 40.7635 45.2969 40.6891 45.4812C40.6146 45.6654 40.4899 45.825 40.3291 45.9418C40.1684 46.0586 39.978 46.1278 39.7798 46.1416C39.5816 46.1554 39.3835 46.1132 39.2081 46.0198L29.9721 41.1638C29.3635 40.8442 28.6864 40.6773 27.9991 40.6773C27.3117 40.6773 26.6346 40.8442 26.0261 41.1638L16.7921 46.0198C16.6167 46.1126 16.4189 46.1544 16.221 46.1403C16.0231 46.1262 15.8331 46.0569 15.6726 45.9402C15.5122 45.8235 15.3877 45.6642 15.3134 45.4802C15.239 45.2963 15.2178 45.0952 15.2521 44.8998L17.0141 34.6218C17.1305 33.9433 17.08 33.2466 16.8671 32.5919C16.6542 31.9372 16.2853 31.3441 15.7921 30.8638L8.32006 23.5898C8.17725 23.4519 8.07605 23.2766 8.02798 23.0839C7.97992 22.8913 7.98693 22.689 8.04822 22.5002C8.1095 22.3113 8.22259 22.1435 8.37461 22.0158C8.52663 21.888 8.71147 21.8056 8.90806 21.7778L19.2381 20.2678C19.9186 20.1688 20.5648 19.9059 21.1212 19.5018C21.6776 19.0976 22.1275 18.5643 22.4321 17.9478L27.0501 8.58979Z" stroke="#FFB800" stroke-width="1.75" stroke-linecap="round" stroke-linejoin="round"/>
</svg>
