<svg width="56" height="56" viewBox="0 0 56 56" fill="none" xmlns="http://www.w3.org/2000/svg">
<path d="M29.66 8.36023C29.1389 8.12252 28.5728 7.99951 28 7.99951C27.4272 7.99951 26.8611 8.12252 26.34 8.36023L9.19999 16.1602C8.84509 16.3167 8.54335 16.573 8.33151 16.8979C8.11968 17.2229 8.0069 17.6024 8.0069 17.9902C8.0069 18.3781 8.11968 18.7576 8.33151 19.0825C8.54335 19.4074 8.84509 19.6637 9.19999 19.8202L26.36 27.6402C26.8811 27.8779 27.4472 28.0009 28.02 28.0009C28.5928 28.0009 29.1589 27.8779 29.68 27.6402L46.84 19.8402C47.1949 19.6837 47.4966 19.4274 47.7085 19.1025C47.9203 18.7776 48.0331 18.3981 48.0331 18.0102C48.0331 17.6224 47.9203 17.2429 47.7085 16.9179C47.4966 16.593 47.1949 16.3367 46.84 16.1802L29.66 8.36023Z" stroke="#FFB800" stroke-width="1.75" stroke-linecap="round" stroke-linejoin="round"/>
<path d="M8.00001 28C7.99906 28.3825 8.10784 28.7573 8.31344 29.0799C8.51904 29.4025 8.81285 29.6593 9.16001 29.82L26.36 37.64C26.8784 37.8747 27.4409 37.9962 28.01 37.9962C28.5791 37.9962 29.1416 37.8747 29.66 37.64L46.82 29.84C47.174 29.6809 47.4741 29.4222 47.6836 29.0955C47.8931 28.7687 48.0031 28.3881 48 28" stroke="#FFB800" stroke-width="1.75" stroke-linecap="round" stroke-linejoin="round"/>
<path d="M8.00001 38C7.99906 38.3825 8.10784 38.7573 8.31344 39.0799C8.51904 39.4025 8.81285 39.6593 9.16001 39.82L26.36 47.64C26.8784 47.8747 27.4409 47.9962 28.01 47.9962C28.5791 47.9962 29.1416 47.8747 29.66 47.64L46.82 39.84C47.174 39.6809 47.4741 39.4222 47.6836 39.0955C47.8931 38.7687 48.0031 38.3881 48 38" stroke="#FFB800" stroke-width="1.75" stroke-linecap="round" stroke-linejoin="round"/>
</svg>
